<svg width="70" height="33" viewBox="0 0 70 33" fill="none" xmlns="http://www.w3.org/2000/svg">
<path d="M30.076 0.728027C29.6653 0.816026 29.2547 1.15336 28.844 1.74003C28.4627 2.29736 28.272 3.29469 28.272 4.73203V32.232L5.74399 5.96403V27.04C5.74399 28.448 5.99333 29.4454 6.49199 30.032C6.99066 30.5894 7.47466 30.912 7.94399 31H1.73999C2.15066 30.912 2.56133 30.5894 2.97199 30.032C3.41199 29.4454 3.63199 28.4334 3.63199 26.996V4.99603C3.63199 3.9987 3.29466 3.08936 2.61999 2.26803C1.94533 1.44669 1.09466 0.93336 0.0679932 0.728027H5.52399L26.16 24.796V4.73203C26.16 2.47336 25.3973 1.13869 23.872 0.728027H30.076Z" fill="#EEEEEE"/>
<path d="M62.4074 31C62.7594 30.9414 63.1407 30.6334 63.5514 30.076C63.9621 29.4894 64.1674 28.4187 64.1674 26.864V4.86403L52.6394 31.484L40.9354 4.90803V26.644C40.9354 28.228 41.1847 29.3427 41.6834 29.988C42.2114 30.604 42.6807 30.9414 43.0914 31H36.5794C37.0194 30.9414 37.5034 30.6187 38.0314 30.032C38.5594 29.416 38.8234 28.2867 38.8234 26.644V4.60003C38.8234 3.19203 38.5741 2.22403 38.0754 1.69603C37.5767 1.16803 37.0781 0.845361 36.5794 0.728027H42.5194L53.2994 25.324L63.9034 0.728027H69.2274C68.8461 0.786693 68.4354 1.09469 67.9954 1.65203C67.5554 2.20936 67.3354 3.23603 67.3354 4.73203V27.04C67.3354 28.5067 67.5554 29.5187 67.9954 30.076C68.4354 30.6334 68.8461 30.9414 69.2274 31H62.4074Z" fill="#EEEEEE"/>
</svg>
